<mxfile host="app.diagrams.net" agent="Mozilla/5.0 (Windows NT 10.0; Win64; x64) AppleWebKit/537.36 (KHTML, like Gecko) Chrome/128.0.0.0 Safari/537.36" version="24.7.7">
  <diagram name="PÃ¡gina-1" id="NHmlEtWdj5bVjoIejz3S">
    <mxGraphModel dx="1195" dy="655" grid="1" gridSize="10" guides="1" tooltips="1" connect="1" arrows="1" fold="1" page="1" pageScale="1" pageWidth="827" pageHeight="1169" math="0" shadow="0">
      <root>
        <mxCell id="0" />
        <mxCell id="1" parent="0" />
        <mxCell id="8RWrVpnVAa181jw9w_el-3" value="" style="edgeStyle=orthogonalEdgeStyle;rounded=0;orthogonalLoop=1;jettySize=auto;html=1;" edge="1" parent="1" source="8RWrVpnVAa181jw9w_el-1" target="8RWrVpnVAa181jw9w_el-2">
          <mxGeometry relative="1" as="geometry" />
        </mxCell>
        <mxCell id="8RWrVpnVAa181jw9w_el-1" value="INICIO" style="ellipse;whiteSpace=wrap;html=1;" vertex="1" parent="1">
          <mxGeometry x="294" y="160" width="120" height="80" as="geometry" />
        </mxCell>
        <mxCell id="8RWrVpnVAa181jw9w_el-5" value="" style="edgeStyle=orthogonalEdgeStyle;rounded=0;orthogonalLoop=1;jettySize=auto;html=1;" edge="1" parent="1" source="8RWrVpnVAa181jw9w_el-2" target="8RWrVpnVAa181jw9w_el-4">
          <mxGeometry relative="1" as="geometry" />
        </mxCell>
        <mxCell id="8RWrVpnVAa181jw9w_el-2" value="NUM" style="shape=hexagon;perimeter=hexagonPerimeter2;whiteSpace=wrap;html=1;fixedSize=1;" vertex="1" parent="1">
          <mxGeometry x="294" y="270" width="120" height="80" as="geometry" />
        </mxCell>
        <mxCell id="8RWrVpnVAa181jw9w_el-7" value="" style="edgeStyle=orthogonalEdgeStyle;rounded=0;orthogonalLoop=1;jettySize=auto;html=1;" edge="1" parent="1" source="8RWrVpnVAa181jw9w_el-4" target="8RWrVpnVAa181jw9w_el-6">
          <mxGeometry relative="1" as="geometry" />
        </mxCell>
        <mxCell id="8RWrVpnVAa181jw9w_el-4" value="LER NUM" style="shape=parallelogram;perimeter=parallelogramPerimeter;whiteSpace=wrap;html=1;fixedSize=1;" vertex="1" parent="1">
          <mxGeometry x="294" y="380" width="120" height="60" as="geometry" />
        </mxCell>
        <mxCell id="8RWrVpnVAa181jw9w_el-9" value="" style="edgeStyle=orthogonalEdgeStyle;rounded=0;orthogonalLoop=1;jettySize=auto;html=1;" edge="1" parent="1" source="8RWrVpnVAa181jw9w_el-6" target="8RWrVpnVAa181jw9w_el-8">
          <mxGeometry relative="1" as="geometry" />
        </mxCell>
        <mxCell id="8RWrVpnVAa181jw9w_el-6" value="NUM = NUM * 2" style="rounded=0;whiteSpace=wrap;html=1;" vertex="1" parent="1">
          <mxGeometry x="294" y="470" width="120" height="60" as="geometry" />
        </mxCell>
        <mxCell id="8RWrVpnVAa181jw9w_el-11" value="" style="edgeStyle=orthogonalEdgeStyle;rounded=0;orthogonalLoop=1;jettySize=auto;html=1;" edge="1" parent="1" source="8RWrVpnVAa181jw9w_el-8" target="8RWrVpnVAa181jw9w_el-10">
          <mxGeometry relative="1" as="geometry" />
        </mxCell>
        <mxCell id="8RWrVpnVAa181jw9w_el-8" value="ESCREVER NUM" style="shape=parallelogram;perimeter=parallelogramPerimeter;whiteSpace=wrap;html=1;fixedSize=1;" vertex="1" parent="1">
          <mxGeometry x="291" y="570" width="126" height="60" as="geometry" />
        </mxCell>
        <mxCell id="8RWrVpnVAa181jw9w_el-10" value="FIM" style="ellipse;whiteSpace=wrap;html=1;" vertex="1" parent="1">
          <mxGeometry x="294" y="670" width="120" height="80" as="geometry" />
        </mxCell>
      </root>
    </mxGraphModel>
  </diagram>
</mxfile>
